<?xml version="1.0"?>
<svg width="600" height="600" xmlns="http://www.w3.org/2000/svg" xmlns:svg="http://www.w3.org/2000/svg" preserveAspectRatio="xMidYMid meet" version="1.0">


 <style>
    path { fill: #000; }
    @media (prefers-color-scheme: dark) {
        path { fill: #FFF; }
    }
</style>

 <g class="layer">
  <title>Layer 1</title>
  <g fill="#000000" id="svg_1" transform="matrix(0.1, 0, 0, -0.1, 0, 0)">
   <path d="m2752.5,-275.53c-30,-4 -78,-11 -105,-14c-131,-15 -373,-73 -520,-125c-322,-112 -570,-246 -847,-458c-358,-274 -692,-713 -858,-1128c-85,-210 -118,-328 -151,-538c-30,-188 -34,-247 -34,-477c1,-203 9,-279 52,-505c35,-183 50,-236 129,-437c140,-362 341,-670 626,-960c291,-298 690,-543 1112,-683c101,-33 332,-89 416,-99c25,-3 56,-8 70,-11c69,-14 330,-26 440,-20c374,19 675,86 980,218c282,122 444,219 684,409c94,74 378,369 455,471c227,305 385,639 476,1008c51,209 85,467 85,645c-1,97 -22,357 -34,409c-2,11 -12,58 -21,105c-72,368 -284,820 -519,1111c-12,14 -34,43 -51,65c-92,122 -384,393 -545,506c-354,249 -835,443 -1220,492c-178,23 -511,31 -620,16zm505,-480c39,-6 81,-13 95,-15c14,-3 52,-10 85,-16c230,-41 511,-153 755,-302c186,-114 445,-343 584,-517c208,-261 352,-549 431,-865c46,-180 46,-188 52,-479c5,-293 -3,-373 -64,-596c-118,-435 -303,-756 -616,-1065c-307,-304 -691,-508 -1112,-593c-201,-41 -259,-46 -480,-46c-185,0 -241,3 -350,23c-292,51 -503,124 -750,259c-494,270 -869,721 -1048,1262c-41,121 -53,168 -88,318c-16,72 -24,217 -24,442c1,201 3,225 33,370c134,656 517,1188 1097,1520c242,139 483,229 745,276c52,9 113,20 135,24c61,11 441,11 520,0z" id="svg_2"/>
   <path d="m2871.5,-1388.53c-73,-31 -122,-69 -157,-122c-42,-64 -156,-337 -709,-1710c-116,-286 -238,-589 -273,-674c-60,-148 -62,-158 -57,-218c8,-78 34,-129 91,-180c82,-72 181,-80 280,-24c67,37 105,88 150,202c21,52 56,136 78,187l40,92l680,0l679,0l38,-82c20,-46 57,-132 81,-193c37,-94 52,-118 99,-166c41,-40 69,-59 104,-68c58,-17 131,-9 185,18c86,44 150,159 139,250c-3,26 -52,161 -110,302c-58,139 -221,540 -362,889c-556,1371 -547,1351 -624,1422c-79,72 -121,91 -216,95c-67,3 -89,0 -136,-20zm194,-919c50,-119 264,-648 369,-912c21,-55 37,-105 34,-113c-8,-19 -944,-20 -952,0c-4,10 136,365 400,1016c49,120 61,141 81,141c7,0 37,-60 68,-132z" id="svg_3"/>
  </g>
 </g>
</svg>